# xmcd
# 
# Track frame offsets:
#     150
#     16741
#     33382
#     50077
#     69338
#     83193
#     99334
#     114517
#     135147
#     151503
#     175301
#     192003
# 
# Disc length: 2746
# 
# Revision: 2
# Processed by: cddbd v1.5.2PL0 Copyright (c) Steve Scherf et al.
# Submitted via: fre:ac v1.0.27
# 
DISCID=850ab80c
DTITLE=Steep Canyon Rangers - Nobody Knows You
DYEAR=2012
DGENRE=Bluegrass
TTITLE0=Nobody Knows You
TTITLE1=Rescue Me
TTITLE2=Easy to Love
TTITLE3=Between Midnight and the Dawn
TTITLE4=As I Go
TTITLE5=Natural Disaster
TTITLE6=Ungrateful One
TTITLE7=Summer Winds
TTITLE8=Open Country
TTITLE9=Knob Creek
TTITLE10=Reputation
TTITLE11=Long Shot
EXTD=
EXTT0=
EXTT1=
EXTT2=
EXTT3=
EXTT4=
EXTT5=
EXTT6=
EXTT7=
EXTT8=
EXTT9=
EXTT10=
EXTT11=
PLAYORDER=
